<svg width="170" height="40" viewBox="0 0 170 40" fill="none" xmlns="http://www.w3.org/2000/svg">
<g clip-path="url(#clip0_335_17338)">
<path d="M51.2773 28.6077H63.2293V25.0955H55.5253V11.8662H51.2773V28.6077Z" fill="#102B32"/>
<path d="M70.3108 26.2666C68.6068 26.2666 67.7188 24.8149 67.7188 22.6374C67.7188 20.4598 68.6068 18.9847 70.3108 18.9847C72.0148 18.9847 72.9268 20.4598 72.9268 22.6374C72.9268 24.8149 72.0148 26.2666 70.3108 26.2666ZM70.3348 28.9827C74.2948 28.9827 76.8868 26.2432 76.8868 22.6374C76.8868 19.0315 74.2948 16.292 70.3348 16.292C66.3988 16.292 63.7588 19.0315 63.7588 22.6374C63.7588 26.2432 66.3988 28.9827 70.3348 28.9827Z" fill="#102B32"/>
<path d="M83.7406 32.7525C85.5646 32.7525 87.1726 32.3544 88.2526 31.4178C89.2366 30.5515 89.8846 29.2403 89.8846 27.4373V16.6198H86.1406V17.9076H86.0926C85.3726 16.9008 84.2686 16.2686 82.6366 16.2686C79.5886 16.2686 77.4766 18.7505 77.4766 22.2627C77.4766 25.9388 80.0446 27.9525 82.8046 27.9525C84.2926 27.9525 85.2286 27.3671 85.9486 26.571H86.0446V27.7651C86.0446 29.2168 85.3486 30.0598 83.6926 30.0598C82.3966 30.0598 81.7486 29.5212 81.5326 28.889H77.7406C78.1246 31.3944 80.3566 32.7525 83.7406 32.7525ZM83.7166 25.1193C82.2526 25.1193 81.2926 23.9486 81.2926 22.1456C81.2926 20.3193 82.2526 19.1486 83.7166 19.1486C85.3486 19.1486 86.2126 20.5066 86.2126 22.1222C86.2126 23.8081 85.4206 25.1193 83.7166 25.1193Z" fill="#102B32"/>
<path d="M97.5832 26.2666C95.8792 26.2666 94.9912 24.8149 94.9912 22.6374C94.9912 20.4598 95.8792 18.9847 97.5832 18.9847C99.2872 18.9847 100.199 20.4598 100.199 22.6374C100.199 24.8149 99.2872 26.2666 97.5832 26.2666ZM97.6072 28.9827C101.567 28.9827 104.159 26.2432 104.159 22.6374C104.159 19.0315 101.567 16.292 97.6072 16.292C93.6712 16.292 91.0312 19.0315 91.0312 22.6374C91.0312 26.2432 93.6712 28.9827 97.6072 28.9827Z" fill="#102B32"/>
<path d="M105.302 28.6077H109.214V16.6194H105.302V28.6077ZM105.302 14.9569H109.214V11.8662H105.302V14.9569Z" fill="#102B32"/>
<path d="M110.911 32.5651H114.823V27.3671H114.871C115.639 28.3739 116.767 28.9827 118.351 28.9827C121.567 28.9827 123.703 26.5007 123.703 22.6139C123.703 19.0081 121.711 16.2686 118.447 16.2686C116.767 16.2686 115.567 16.9944 114.727 18.0715H114.655V16.6198H110.911V32.5651ZM117.343 26.0325C115.663 26.0325 114.703 24.6978 114.703 22.7544C114.703 20.811 115.567 19.3359 117.271 19.3359C118.951 19.3359 119.743 20.6939 119.743 22.7544C119.743 24.7915 118.831 26.0325 117.343 26.0325Z" fill="#102B32"/>
<path d="M130.072 28.9827C133.288 28.9827 135.664 27.6247 135.664 25.0022C135.664 21.9349 133.12 21.3964 130.96 21.0451C129.4 20.7642 128.008 20.6471 128.008 19.8042C128.008 19.0549 128.752 18.7037 129.712 18.7037C130.792 18.7037 131.536 19.0315 131.68 20.1086H135.28C135.088 17.7437 133.216 16.2686 129.736 16.2686C126.832 16.2686 124.432 17.5798 124.432 20.1086C124.432 22.9183 126.712 23.4803 128.848 23.8315C130.48 24.1125 131.968 24.2295 131.968 25.3066C131.968 26.0793 131.224 26.5008 130.048 26.5008C128.752 26.5008 127.936 25.9154 127.792 24.7212H124.096C124.216 27.3671 126.472 28.9827 130.072 28.9827Z" fill="#102B32"/>
<path d="M140.978 28.9596C142.682 28.9596 143.762 28.304 144.65 27.1333H144.722V28.6084H148.466V16.6201H144.554V23.3167C144.554 24.745 143.738 25.7284 142.394 25.7284C141.146 25.7284 140.546 25.0026 140.546 23.6913V16.6201H136.658V24.4874C136.658 27.1567 138.146 28.9596 140.978 28.9596Z" fill="#102B32"/>
<path d="M150.168 28.6081H154.08V21.8881C154.08 20.4598 154.8 19.4529 156.024 19.4529C157.2 19.4529 157.752 20.2022 157.752 21.49V28.6081H161.664V21.8881C161.664 20.4598 162.36 19.4529 163.608 19.4529C164.784 19.4529 165.336 20.2022 165.336 21.49V28.6081H169.248V20.811C169.248 18.1183 167.856 16.2686 165.072 16.2686C163.488 16.2686 162.168 16.9242 161.208 18.3759H161.16C160.536 17.0881 159.312 16.2686 157.704 16.2686C155.928 16.2686 154.752 17.0881 153.984 18.329H153.912V16.6198H150.168V28.6081Z" fill="#102B32"/>
<path fill-rule="evenodd" clip-rule="evenodd" d="M20.1015 39.3398C31.1473 39.3398 40.1015 30.6039 40.1015 19.8276C40.1015 9.05133 31.1473 0.31543 20.1015 0.31543C9.05585 0.31543 0.101562 9.05133 0.101562 19.8276C0.101562 30.6039 9.05585 39.3398 20.1015 39.3398ZM23.1885 15.3911C24.8933 13.7278 24.8933 11.0311 23.1885 9.36778C21.4836 7.70448 18.7195 7.70448 17.0146 9.36778C15.3098 11.0311 15.3098 13.7278 17.0146 15.3911L20.1015 18.4027L23.1885 15.3911ZM24.649 22.8393C26.3539 24.5026 29.118 24.5026 30.8229 22.8393C32.5277 21.176 32.5277 18.4793 30.8229 16.816C29.118 15.1528 26.3539 15.1528 24.649 16.816L21.5621 19.8277L24.649 22.8393ZM23.1885 30.2875C24.8933 28.6242 24.8933 25.9275 23.1885 24.2642L20.1015 21.2526L17.0146 24.2642C15.3098 25.9275 15.3098 28.6242 17.0146 30.2875C18.7195 31.9508 21.4836 31.9508 23.1885 30.2875ZM9.38019 22.8393C7.67535 21.176 7.67535 18.4793 9.38019 16.816C11.0851 15.1528 13.8492 15.1528 15.5541 16.816L18.641 19.8277L15.5541 22.8393C13.8492 24.5026 11.0851 24.5026 9.38019 22.8393Z" fill="#DFF39E"/>
</g>
<defs>
<clipPath id="clip0_335_17338">
<rect width="170" height="40" fill="white"/>
</clipPath>
</defs>
</svg>
