<svg width="170" height="37" viewBox="0 0 170 37" fill="none" xmlns="http://www.w3.org/2000/svg">
<g clip-path="url(#clip0_335_17350)">
<path fill-rule="evenodd" clip-rule="evenodd" d="M21.5073 10.8089C20.1233 9.79251 18.4962 9.25 16.8317 9.25V0C20.1607 0 23.4149 1.08501 26.1829 3.11781C28.9508 5.15061 31.1081 8.03992 32.3821 11.4203C33.656 14.8007 33.9894 18.5205 33.3399 22.1092C32.6905 25.6978 31.0874 28.9942 28.7335 31.5814C26.3795 34.1688 23.3804 35.9307 20.1154 36.6445C16.8504 37.3583 13.466 36.992 10.3905 35.5918C7.31488 34.1915 4.68613 31.8204 2.83665 28.778C0.987161 25.7357 0 22.1589 0 18.5H8.41584C8.41584 20.3295 8.90943 22.1179 9.83416 23.639C10.7589 25.1602 12.0733 26.3458 13.6111 27.0459C15.1489 27.746 16.841 27.9292 18.4735 27.5722C20.106 27.2154 21.6056 26.3344 22.7826 25.0408C23.9596 23.7471 24.7611 22.0989 25.0858 20.3046C25.4105 18.5103 25.2439 16.6504 24.6069 14.9602C23.9699 13.27 22.8913 11.8253 21.5073 10.8089Z" fill="#DFF39E"/>
<path fill-rule="evenodd" clip-rule="evenodd" d="M8.41584 4.88856e-06C8.41584 1.21473 8.19816 2.41756 7.77522 3.53983C7.35228 4.66209 6.73238 5.6818 5.9509 6.54074C5.16942 7.39969 4.24166 8.08103 3.2206 8.54589C2.19954 9.01074 1.10518 9.25 3.67865e-07 9.25L0 18.5C2.21037 18.5 4.39909 18.0215 6.44121 17.0918C8.48333 16.1621 10.3389 14.7994 11.9018 13.0814C13.4648 11.3636 14.7046 9.32419 15.5505 7.07965C16.3963 4.83512 16.8317 2.42945 16.8317 0L8.41584 4.88856e-06Z" fill="#DFF39E"/>
<path d="M105.719 13.3682H101.636V27.6245H105.719V13.3682Z" fill="#102B32"/>
<path d="M102.09 10.6987C102.517 11.1681 103.05 11.4027 103.691 11.4027C104.331 11.4027 104.856 11.1681 105.265 10.6987C105.675 10.2099 105.88 9.62312 105.88 8.93867C105.88 8.23467 105.675 7.64796 105.265 7.17864C104.856 6.70927 104.331 6.47461 103.691 6.47461C103.05 6.47461 102.517 6.70927 102.09 7.17864C101.68 7.64796 101.476 8.23467 101.476 8.93867C101.476 9.62312 101.68 10.2099 102.09 10.6987Z" fill="#102B32"/>
<path d="M43.0527 27.625V6.91504H47.2429V23.5769H55.5965V27.625H43.0527Z" fill="#102B32"/>
<path fill-rule="evenodd" clip-rule="evenodd" d="M63.1421 27.9476C61.8077 27.9476 60.5979 27.625 59.5125 26.9796C58.4449 26.3147 57.5998 25.4152 56.977 24.2809C56.3543 23.1466 56.043 21.8755 56.043 20.4675C56.043 19.0594 56.3543 17.7981 56.977 16.6834C57.5998 15.5687 58.4449 14.6886 59.5125 14.0433C60.58 13.3783 61.79 13.0459 63.1421 13.0459C64.4944 13.0459 65.7043 13.3686 66.7718 14.0139C67.8394 14.6593 68.6846 15.5491 69.3073 16.6834C69.93 17.7981 70.2414 19.0594 70.2414 20.4675C70.2414 21.8755 69.93 23.1466 69.3073 24.2809C68.6846 25.4152 67.8394 26.3147 66.7718 26.9796C65.7043 27.625 64.4944 27.9476 63.1421 27.9476ZM63.1421 23.8702C63.7293 23.8702 64.2453 23.7333 64.6902 23.4595C65.1349 23.1662 65.473 22.7653 65.7043 22.2569C65.9534 21.7289 66.0779 21.1323 66.0779 20.4675C66.0779 19.8026 65.9534 19.2256 65.7043 18.7368C65.4552 18.2283 65.1083 17.8372 64.6634 17.5634C64.2364 17.27 63.7293 17.1234 63.1421 17.1234C62.5728 17.1234 62.0658 17.27 61.6209 17.5634C61.1761 17.8372 60.8291 18.2283 60.58 18.7368C60.3309 19.2452 60.2065 19.8319 60.2065 20.4968C60.2065 21.1421 60.3309 21.7289 60.58 22.2569C60.8291 22.7653 61.1761 23.1662 61.6209 23.4595C62.0658 23.7333 62.5728 23.8702 63.1421 23.8702Z" fill="#102B32"/>
<path fill-rule="evenodd" clip-rule="evenodd" d="M73.4745 33.1985C74.5598 33.746 75.8142 34.0198 77.2377 34.0198C78.6255 34.0198 79.8621 33.7167 80.9474 33.1104C82.0328 32.5042 82.8867 31.6633 83.5095 30.5878C84.1322 29.5122 84.444 28.241 84.444 26.7743V13.3686H80.4403V14.3264C80.1425 14.051 79.8043 13.8197 79.4261 13.6326C78.7322 13.261 77.9404 13.0752 77.0509 13.0752C75.8587 13.0752 74.8 13.3881 73.8749 14.0139C72.9496 14.6201 72.2202 15.461 71.6863 16.5366C71.1525 17.5927 70.8857 18.7856 70.8857 20.1155C70.8857 21.4257 71.1525 22.6186 71.6863 23.6942C72.2202 24.7698 72.9496 25.6205 73.8749 26.2463C74.8 26.872 75.8587 27.185 77.0509 27.185C77.9226 27.185 78.7144 26.9992 79.4261 26.6276C79.7709 26.4476 80.0822 26.2355 80.3602 25.9912V26.8916C80.3602 27.889 80.0667 28.6614 79.4795 29.209C78.9102 29.7566 78.1184 30.0304 77.1042 30.0304C76.2858 30.0304 75.583 29.8739 74.9958 29.561C74.4265 29.2482 73.9104 28.7885 73.4478 28.1823L70.9391 30.9397C71.5618 31.9175 72.407 32.6705 73.4745 33.1985ZM79.2927 22.7848C78.8834 23.0586 78.3942 23.1955 77.8248 23.1955C77.2554 23.1955 76.7572 23.0586 76.3302 22.7848C75.9209 22.511 75.6007 22.1395 75.3694 21.6701C75.1381 21.1812 75.0225 20.663 75.0225 20.1155C75.0225 19.5287 75.1381 19.0007 75.3694 18.5314C75.6007 18.0621 75.9299 17.6905 76.3569 17.4167C76.7839 17.1429 77.2732 17.006 77.8248 17.006C78.3942 17.006 78.8834 17.1429 79.2927 17.4167C79.7197 17.6905 80.0399 18.0621 80.2535 18.5314C80.4848 19.0007 80.6004 19.5287 80.6004 20.1155C80.6004 20.7021 80.4848 21.2301 80.2535 21.6994C80.0399 22.1493 79.7197 22.511 79.2927 22.7848Z" fill="#102B32"/>
<path fill-rule="evenodd" clip-rule="evenodd" d="M93.0381 27.9476C91.7033 27.9476 90.4931 27.625 89.4083 26.9796C88.3404 26.3147 87.4954 25.4152 86.8726 24.2809C86.2499 23.1466 85.9385 21.8755 85.9385 20.4675C85.9385 19.0594 86.2499 17.7981 86.8726 16.6834C87.4954 15.5687 88.3404 14.6886 89.4083 14.0433C90.4755 13.3783 91.6857 13.0459 93.0381 13.0459C94.3897 13.0459 95.5999 13.3686 96.667 14.0139C97.735 14.6593 98.5799 15.5491 99.2027 16.6834C99.8255 17.7981 100.137 19.0594 100.137 20.4675C100.137 21.8755 99.8255 23.1466 99.2027 24.2809C98.5799 25.4152 97.735 26.3147 96.667 26.9796C95.5999 27.625 94.3897 27.9476 93.0381 27.9476ZM93.0381 23.8702C93.6247 23.8702 94.1406 23.7333 94.5858 23.4595C95.0301 23.1662 95.3684 22.7653 95.5999 22.2569C95.849 21.7289 95.9735 21.1323 95.9735 20.4675C95.9735 19.8026 95.849 19.2256 95.5999 18.7368C95.3508 18.2283 95.004 17.8372 94.5588 17.5634C94.1321 17.27 93.6247 17.1234 93.0381 17.1234C92.4683 17.1234 91.9609 17.27 91.5165 17.5634C91.0713 17.8372 90.7246 18.2283 90.4755 18.7368C90.2263 19.2452 90.1018 19.8319 90.1018 20.4968C90.1018 21.1421 90.2263 21.7289 90.4755 22.2569C90.7246 22.7653 91.0713 23.1662 91.5165 23.4595C91.9609 23.7333 92.4683 23.8702 93.0381 23.8702Z" fill="#102B32"/>
<path fill-rule="evenodd" clip-rule="evenodd" d="M115.534 27.9183C114.663 27.9183 113.862 27.7326 113.132 27.361C112.748 27.1654 112.402 26.932 112.092 26.6606V33.6385H108.062V13.3686H112.145V14.3525C112.441 14.0862 112.77 13.856 113.132 13.6619C113.862 13.2707 114.663 13.0752 115.534 13.0752C116.762 13.0752 117.847 13.3979 118.79 14.0433C119.751 14.6886 120.498 15.5686 121.032 16.6833C121.584 17.7981 121.859 19.0692 121.859 20.4967C121.859 21.9244 121.584 23.1955 121.032 24.3102C120.498 25.425 119.751 26.3049 118.79 26.9503C117.847 27.5957 116.762 27.9183 115.534 27.9183ZM114.787 23.8702C115.374 23.8702 115.882 23.7235 116.308 23.4302C116.753 23.1369 117.1 22.7359 117.349 22.2275C117.598 21.719 117.723 21.1421 117.723 20.4967C117.723 19.8319 117.598 19.2452 117.349 18.7367C117.1 18.2283 116.753 17.8372 116.308 17.5634C115.882 17.27 115.383 17.1234 114.814 17.1234C114.245 17.1234 113.737 17.27 113.293 17.5634C112.865 17.8372 112.528 18.2283 112.279 18.7367C112.03 19.2452 111.905 19.8319 111.905 20.4967C111.905 21.1421 112.02 21.719 112.252 22.2275C112.501 22.7359 112.848 23.1369 113.293 23.4302C113.737 23.7235 114.235 23.8702 114.787 23.8702Z" fill="#102B32"/>
<path d="M125.856 27.6544C126.603 27.8696 127.359 27.977 128.124 27.977C129.743 27.977 131.024 27.5664 131.967 26.745C132.928 25.9237 133.408 24.8188 133.408 23.4303C133.408 22.5307 133.258 21.8071 132.955 21.2596C132.653 20.6925 132.261 20.2427 131.781 19.9102C131.3 19.5778 130.793 19.3137 130.259 19.1181C129.726 18.9226 129.218 18.7564 128.738 18.6195C128.258 18.4826 127.866 18.3262 127.563 18.1501C127.261 17.9741 127.11 17.7394 127.11 17.4461C127.11 17.1723 127.226 16.967 127.457 16.8301C127.688 16.6736 128.035 16.5955 128.498 16.5955C128.978 16.5955 129.467 16.703 129.965 16.9181C130.481 17.1332 130.944 17.5048 131.353 18.0328L133.675 15.4514C133.088 14.63 132.323 14.014 131.38 13.6034C130.455 13.1732 129.441 12.958 128.338 12.958C127.288 12.958 126.372 13.1536 125.589 13.5446C124.806 13.9358 124.201 14.4736 123.774 15.158C123.347 15.8229 123.133 16.615 123.133 17.5342C123.133 18.3946 123.285 19.1084 123.587 19.6755C123.889 20.2231 124.281 20.6534 124.761 20.9662C125.242 21.2791 125.749 21.5236 126.283 21.6995C126.816 21.8756 127.324 22.0418 127.804 22.1983C128.284 22.3352 128.676 22.5014 128.978 22.697C129.299 22.873 129.459 23.137 129.459 23.4889C129.459 23.7627 129.325 23.9778 129.058 24.1343C128.809 24.2907 128.445 24.369 127.964 24.369C127.27 24.369 126.629 24.2321 126.043 23.9583C125.455 23.665 124.948 23.2641 124.521 22.7556L122.199 25.337C122.644 25.865 123.178 26.3344 123.801 26.745C124.441 27.1361 125.126 27.4393 125.856 27.6544Z" fill="#102B32"/>
<path d="M140.854 27.9472C139.662 27.9472 138.604 27.6832 137.679 27.1552C136.771 26.6076 136.06 25.8645 135.544 24.9258C135.027 23.9676 134.77 22.8724 134.77 21.6403V13.3682H138.853V21.5817C138.853 22.0706 138.924 22.4911 139.067 22.843C139.227 23.1951 139.458 23.4689 139.76 23.6644C140.063 23.86 140.427 23.9577 140.854 23.9577C141.459 23.9577 141.94 23.7524 142.296 23.3417C142.652 22.9115 142.829 22.3248 142.829 21.5817V13.3682H146.913V21.611C146.913 22.8626 146.655 23.9676 146.138 24.9258C145.623 25.8645 144.911 26.6076 144.003 27.1552C143.096 27.6832 142.047 27.9472 140.854 27.9472Z" fill="#102B32"/>
<path d="M153.026 13.3686H148.942V27.625H153.026V19.2941C153.026 18.8052 153.115 18.3945 153.293 18.0621C153.489 17.7296 153.747 17.4753 154.067 17.2994C154.387 17.1038 154.752 17.006 155.161 17.006C155.748 17.006 156.237 17.2113 156.629 17.622C157.038 18.0131 157.243 18.5705 157.243 19.2941V27.625H161.326V19.2941C161.326 18.8052 161.415 18.3945 161.593 18.0621C161.789 17.7296 162.047 17.4753 162.367 17.2994C162.687 17.1038 163.052 17.006 163.461 17.006C164.049 17.006 164.538 17.2113 164.929 17.622C165.338 18.0131 165.543 18.5705 165.543 19.2941V27.625H169.627V18.7954C169.627 17.6025 169.395 16.5856 168.933 15.7447C168.487 14.8841 167.874 14.229 167.091 13.7793C166.326 13.3099 165.445 13.0752 164.449 13.0752C163.434 13.0752 162.518 13.3197 161.7 13.8086C161.168 14.1201 160.704 14.5221 160.305 15.0146C159.934 14.4994 159.483 14.0779 158.951 13.7499C158.239 13.3002 157.43 13.0752 156.523 13.0752C155.561 13.0752 154.699 13.3002 153.934 13.7499C153.601 13.937 153.298 14.1611 153.026 14.4223V13.3686Z" fill="#102B32"/>
</g>
<defs>
<clipPath id="clip0_335_17350">
<rect width="170" height="37" fill="white"/>
</clipPath>
</defs>
</svg>
