<svg width="170" height="40" viewBox="0 0 170 40" fill="none" xmlns="http://www.w3.org/2000/svg">
<g clip-path="url(#clip0_335_17363)">
<path d="M49.8633 28.2454H61.9576V24.7332H54.1619V11.5039H49.8633V28.2454Z" fill="#102B32"/>
<path d="M69.1241 25.9043C67.3999 25.9043 66.5013 24.4526 66.5013 22.2751C66.5013 20.0975 67.3999 18.6224 69.1241 18.6224C70.8484 18.6224 71.7713 20.0975 71.7713 22.2751C71.7713 24.4526 70.8484 25.9043 69.1241 25.9043ZM69.1484 28.6204C73.1556 28.6204 75.7784 25.8809 75.7784 22.2751C75.7784 18.6692 73.1556 15.9297 69.1484 15.9297C65.1656 15.9297 62.4941 18.6692 62.4941 22.2751C62.4941 25.8809 65.1656 28.6204 69.1484 28.6204Z" fill="#102B32"/>
<path d="M82.7136 32.3911C84.5593 32.3911 86.1864 31.9931 87.2793 31.0565C88.275 30.1902 88.9307 28.8789 88.9307 27.076V16.2584H85.1421V17.5463H85.0936C84.365 16.5394 83.2479 15.9072 81.5964 15.9072C78.5121 15.9072 76.375 18.3892 76.375 21.9014C76.375 25.5775 78.9736 27.5911 81.7664 27.5911C83.2721 27.5911 84.2193 27.0058 84.9479 26.2097H85.045V27.4038C85.045 28.8555 84.3407 29.6984 82.665 29.6984C81.3536 29.6984 80.6979 29.1599 80.4793 28.5277H76.6421C77.0307 31.0331 79.2893 32.3911 82.7136 32.3911ZM82.6893 24.758C81.2079 24.758 80.2364 23.5872 80.2364 21.7843C80.2364 19.958 81.2079 18.7872 82.6893 18.7872C84.3407 18.7872 85.215 20.1453 85.215 21.7609C85.215 23.4467 84.4136 24.758 82.6893 24.758Z" fill="#102B32"/>
<path d="M96.7218 25.9043C94.9975 25.9043 94.0989 24.4526 94.0989 22.2751C94.0989 20.0975 94.9975 18.6224 96.7218 18.6224C98.4461 18.6224 99.3689 20.0975 99.3689 22.2751C99.3689 24.4526 98.4461 25.9043 96.7218 25.9043ZM96.7461 28.6204C100.753 28.6204 103.376 25.8809 103.376 22.2751C103.376 18.6692 100.753 15.9297 96.7461 15.9297C92.7632 15.9297 90.0918 18.6692 90.0918 22.2751C90.0918 25.8809 92.7632 28.6204 96.7461 28.6204Z" fill="#102B32"/>
<path d="M104.531 28.2454H108.49V16.2571H104.531V28.2454ZM104.531 14.5946H108.49V11.5039H104.531V14.5946Z" fill="#102B32"/>
<path d="M110.207 32.2038H114.166V27.0058H114.214C114.991 28.0126 116.133 28.6214 117.736 28.6214C120.99 28.6214 123.151 26.1394 123.151 22.2526C123.151 18.6467 121.136 15.9072 117.833 15.9072C116.133 15.9072 114.918 16.6331 114.068 17.7102H113.996V16.2584H110.207V32.2038ZM116.716 25.6711C115.016 25.6711 114.044 24.3365 114.044 22.3931C114.044 20.4497 114.918 18.9745 116.643 18.9745C118.343 18.9745 119.144 20.3326 119.144 22.3931C119.144 24.4302 118.221 25.6711 116.716 25.6711Z" fill="#102B32"/>
<path d="M129.596 28.6214C132.85 28.6214 135.255 27.2633 135.255 24.6409C135.255 21.5736 132.68 21.035 130.495 20.6838C128.916 20.4028 127.507 20.2858 127.507 19.4428C127.507 18.6936 128.26 18.3423 129.232 18.3423C130.325 18.3423 131.077 18.6702 131.223 19.7472H134.866C134.672 17.3823 132.777 15.9072 129.256 15.9072C126.317 15.9072 123.889 17.2184 123.889 19.7472C123.889 22.557 126.196 23.1189 128.357 23.4702C130.009 23.7511 131.515 23.8682 131.515 24.9453C131.515 25.718 130.762 26.1394 129.572 26.1394C128.26 26.1394 127.435 25.5541 127.289 24.3599H123.549C123.67 27.0058 125.953 28.6214 129.596 28.6214Z" fill="#102B32"/>
<path d="M140.633 28.5973C142.357 28.5973 143.45 27.9417 144.349 26.771H144.422V28.2461H148.21V16.2578H144.252V22.9544C144.252 24.3827 143.426 25.3661 142.066 25.3661C140.803 25.3661 140.196 24.6403 140.196 23.329V16.2578H136.262V24.1251C136.262 26.7944 137.767 28.5973 140.633 28.5973Z" fill="#102B32"/>
<path d="M149.932 28.2467H153.89V21.5267C153.89 20.0984 154.619 19.0916 155.857 19.0916C157.047 19.0916 157.606 19.8409 157.606 21.1287V28.2467H161.564V21.5267C161.564 20.0984 162.269 19.0916 163.532 19.0916C164.722 19.0916 165.28 19.8409 165.28 21.1287V28.2467H169.239V20.4497C169.239 17.757 167.83 15.9072 165.013 15.9072C163.41 15.9072 162.074 16.5628 161.103 18.0145H161.055C160.423 16.7267 159.184 15.9072 157.557 15.9072C155.76 15.9072 154.57 16.7267 153.793 17.9677H153.72V16.2584H149.932V28.2467Z" fill="#102B32"/>
<path d="M25.7125 1.92855L21.7327 0.900391L18.3788 12.9683L15.3509 2.07331L11.371 3.10146L14.6425 14.8727L6.49399 7.01647L3.58052 9.82543L12.5184 18.4428L1.38769 15.5673L0.321289 19.4044L12.483 22.5462C12.3437 21.9672 12.2701 21.3639 12.2701 20.744C12.2701 16.3561 15.9595 12.799 20.5106 12.799C25.0618 12.799 28.7512 16.3561 28.7512 20.744C28.7512 21.3599 28.6784 21.9595 28.5409 22.5351L39.5936 25.3904L40.66 21.5533L28.4499 18.399L39.5814 15.5233L38.5149 11.6862L26.3054 14.8404L34.4539 6.98421L31.5404 4.17525L22.7265 12.673L25.7125 1.92855Z" fill="#DFF39E"/>
<path d="M28.5305 22.5801C28.1893 23.9709 27.4689 25.2204 26.4805 26.2214L34.4877 33.9415L37.4012 31.1326L28.5305 22.5801Z" fill="#DFF39E"/>
<path d="M26.399 26.3027C25.3986 27.2878 24.1345 28.0229 22.7168 28.4018L25.6305 38.8857L29.6103 37.8575L26.399 26.3027Z" fill="#DFF39E"/>
<path d="M22.5684 28.4394C21.9106 28.6024 21.2212 28.6891 20.5108 28.6891C19.7496 28.6891 19.0125 28.5896 18.3128 28.4033L15.3965 38.8968L19.3763 39.9249L22.5684 28.4394Z" fill="#DFF39E"/>
<path d="M18.1719 28.3644C16.7759 27.9668 15.5342 27.2223 14.5543 26.2344L6.52734 33.9734L9.44081 36.7824L18.1719 28.3644Z" fill="#DFF39E"/>
<path d="M14.4868 26.1656C13.5237 25.1715 12.8222 23.9387 12.4882 22.5693L1.39941 25.434L2.46581 29.2711L14.4868 26.1656Z" fill="#DFF39E"/>
</g>
<defs>
<clipPath id="clip0_335_17363">
<rect width="170" height="40" fill="white"/>
</clipPath>
</defs>
</svg>
