<svg width="170" height="40" viewBox="0 0 170 40" fill="none" xmlns="http://www.w3.org/2000/svg">
<g clip-path="url(#clip0_335_17325)">
<path d="M51.8604 27.4514H63.8124V23.9392H56.1084V10.71H51.8604V27.4514Z" fill="#102B32"/>
<path d="M70.8938 25.1104C69.1898 25.1104 68.3018 23.6587 68.3018 21.4811C68.3018 19.3035 69.1898 17.8284 70.8938 17.8284C72.5978 17.8284 73.5098 19.3035 73.5098 21.4811C73.5098 23.6587 72.5978 25.1104 70.8938 25.1104ZM70.9178 27.8265C74.8778 27.8265 77.4698 25.087 77.4698 21.4811C77.4698 17.8753 74.8778 15.1357 70.9178 15.1357C66.9818 15.1357 64.3418 17.8753 64.3418 21.4811C64.3418 25.087 66.9818 27.8265 70.9178 27.8265Z" fill="#102B32"/>
<path d="M84.3236 31.5962C86.1476 31.5962 87.7556 31.1982 88.8356 30.2616C89.8196 29.3952 90.4676 28.084 90.4676 26.2811V15.4635H86.7236V16.7513H86.6756C85.9556 15.7445 84.8516 15.1123 83.2196 15.1123C80.1716 15.1123 78.0596 17.5943 78.0596 21.1065C78.0596 24.7825 80.6276 26.7962 83.3876 26.7962C84.8756 26.7962 85.8116 26.2108 86.5316 25.4147H86.6276V26.6089C86.6276 28.0606 85.9316 28.9035 84.2756 28.9035C82.9796 28.9035 82.3316 28.365 82.1156 27.7328H78.3236C78.7076 30.2382 80.9396 31.5962 84.3236 31.5962ZM84.2996 23.963C82.8356 23.963 81.8756 22.7923 81.8756 20.9894C81.8756 19.163 82.8356 17.9923 84.2996 17.9923C85.9316 17.9923 86.7956 19.3504 86.7956 20.966C86.7956 22.6518 86.0036 23.963 84.2996 23.963Z" fill="#102B32"/>
<path d="M98.1663 25.1104C96.4623 25.1104 95.5743 23.6587 95.5743 21.4811C95.5743 19.3035 96.4623 17.8284 98.1663 17.8284C99.8703 17.8284 100.782 19.3035 100.782 21.4811C100.782 23.6587 99.8703 25.1104 98.1663 25.1104ZM98.1903 27.8265C102.15 27.8265 104.742 25.087 104.742 21.4811C104.742 17.8753 102.15 15.1357 98.1903 15.1357C94.2543 15.1357 91.6143 17.8753 91.6143 21.4811C91.6143 25.087 94.2543 27.8265 98.1903 27.8265Z" fill="#102B32"/>
<path d="M105.884 27.4514H109.796V15.4631H105.884V27.4514ZM105.884 13.8007H109.796V10.71H105.884V13.8007Z" fill="#102B32"/>
<path d="M111.494 31.4089H115.406V26.2108H115.454C116.222 27.2177 117.35 27.8265 118.934 27.8265C122.15 27.8265 124.286 25.3445 124.286 21.4577C124.286 17.8518 122.294 15.1123 119.03 15.1123C117.35 15.1123 116.15 15.8382 115.31 16.9152H115.238V15.4635H111.494V31.4089ZM117.926 24.8762C116.246 24.8762 115.286 23.5416 115.286 21.5982C115.286 19.6547 116.15 18.1796 117.854 18.1796C119.534 18.1796 120.326 19.5377 120.326 21.5982C120.326 23.6352 119.414 24.8762 117.926 24.8762Z" fill="#102B32"/>
<path d="M130.655 27.8265C133.871 27.8265 136.247 26.4684 136.247 23.846C136.247 20.7786 133.703 20.2401 131.543 19.8889C129.983 19.6079 128.591 19.4908 128.591 18.6479C128.591 17.8986 129.335 17.5474 130.295 17.5474C131.375 17.5474 132.119 17.8752 132.263 18.9523H135.863C135.671 16.5874 133.799 15.1123 130.319 15.1123C127.415 15.1123 125.015 16.4235 125.015 18.9523C125.015 21.7621 127.295 22.324 129.431 22.6752C131.063 22.9562 132.551 23.0733 132.551 24.1504C132.551 24.923 131.807 25.3445 130.631 25.3445C129.335 25.3445 128.519 24.7591 128.375 23.565H124.679C124.799 26.2108 127.055 27.8265 130.655 27.8265Z" fill="#102B32"/>
<path d="M141.561 27.8024C143.265 27.8024 144.345 27.1468 145.233 25.9761H145.305V27.4512H149.049V15.4629H145.137V22.1595C145.137 23.5878 144.321 24.5712 142.977 24.5712C141.729 24.5712 141.129 23.8453 141.129 22.5341V15.4629H137.241V23.3302C137.241 25.9995 138.729 27.8024 141.561 27.8024Z" fill="#102B32"/>
<path d="M150.75 27.4518H154.662V20.7318C154.662 19.3035 155.382 18.2967 156.606 18.2967C157.782 18.2967 158.334 19.046 158.334 20.3338V27.4518H162.246V20.7318C162.246 19.3035 162.942 18.2967 164.19 18.2967C165.366 18.2967 165.918 19.046 165.918 20.3338V27.4518H169.83V19.6547C169.83 16.9621 168.438 15.1123 165.654 15.1123C164.07 15.1123 162.75 15.7679 161.79 17.2196H161.742C161.118 15.9318 159.894 15.1123 158.286 15.1123C156.51 15.1123 155.334 15.9318 154.566 17.1728H154.494V15.4635H150.75V27.4518Z" fill="#102B32"/>
<path fill-rule="evenodd" clip-rule="evenodd" d="M20.6836 39.1591C31.7293 39.1591 40.6836 30.4232 40.6836 19.6469C40.6836 8.87068 31.7293 0.134766 20.6836 0.134766C9.63788 0.134766 0.683594 8.87068 0.683594 19.6469C0.683594 30.4232 9.63788 39.1591 20.6836 39.1591ZM26.9229 9.22437C27.2266 8.17189 26.1797 7.54953 25.2236 8.21408L11.8767 17.4904C10.8398 18.2111 11.0029 19.6469 12.1217 19.6469H15.6363V19.6204H22.4861L16.9048 21.5417L14.4443 30.0696C14.1406 31.1221 15.1874 31.7444 16.1436 31.0798L29.4905 21.8035C30.5274 21.0828 30.3642 19.6469 29.2455 19.6469H23.9157L26.9229 9.22437Z" fill="#DFF39E"/>
</g>
<defs>
<clipPath id="clip0_335_17325">
<rect width="170" height="40" fill="white"/>
</clipPath>
</defs>
</svg>
