<svg width="152" height="50" viewBox="0 0 152 50" fill="none" xmlns="http://www.w3.org/2000/svg">
<path d="M72.894 34.494C71.178 34.494 69.7047 34.1907 68.474 33.584C67.2433 32.9773 66.238 32.1887 65.458 31.218C64.6953 30.2473 64.132 29.19 63.768 28.046C63.404 26.902 63.222 25.8013 63.222 24.744V24.172C63.222 22.9933 63.404 21.832 63.768 20.688C64.1493 19.544 64.73 18.504 65.51 17.568C66.29 16.632 67.278 15.8867 68.474 15.332C69.6873 14.76 71.1173 14.474 72.764 14.474C74.48 14.474 75.9707 14.786 77.236 15.41C78.5187 16.0167 79.5413 16.8833 80.304 18.01C81.0667 19.1193 81.526 20.4193 81.682 21.91H77.964C77.8253 21.0433 77.5133 20.3153 77.028 19.726C76.56 19.1193 75.962 18.6687 75.234 18.374C74.506 18.062 73.6827 17.906 72.764 17.906C71.828 17.906 70.996 18.0707 70.268 18.4C69.54 18.712 68.9333 19.1627 68.448 19.752C67.9627 20.3413 67.59 21.0347 67.33 21.832C67.0873 22.6293 66.966 23.5133 66.966 24.484C66.966 25.42 67.0873 26.2867 67.33 27.084C67.59 27.8813 67.9713 28.5833 68.474 29.19C68.9767 29.7793 69.592 30.2387 70.32 30.568C71.0653 30.8973 71.9233 31.062 72.894 31.062C74.3153 31.062 75.5113 30.7153 76.482 30.022C77.47 29.3113 78.068 28.3233 78.276 27.058H81.994C81.8207 28.41 81.3613 29.6493 80.616 30.776C79.8707 31.9027 78.848 32.804 77.548 33.48C76.248 34.156 74.6967 34.494 72.894 34.494ZM91.6095 34.494C90.3615 34.494 89.2609 34.2947 88.3075 33.896C87.3542 33.4973 86.5482 32.96 85.8895 32.284C85.2309 31.5907 84.7282 30.8107 84.3815 29.944C84.0522 29.0773 83.8875 28.176 83.8875 27.24V26.694C83.8875 25.7233 84.0609 24.8047 84.4075 23.938C84.7715 23.054 85.2829 22.274 85.9415 21.598C86.6175 20.9047 87.4322 20.3673 88.3855 19.986C89.3389 19.5873 90.4135 19.388 91.6095 19.388C92.8055 19.388 93.8802 19.5873 94.8335 19.986C95.7869 20.3673 96.5929 20.9047 97.2515 21.598C97.9275 22.274 98.4389 23.054 98.7855 23.938C99.1322 24.8047 99.3055 25.7233 99.3055 26.694V27.24C99.3055 28.176 99.1322 29.0773 98.7855 29.944C98.4562 30.8107 97.9622 31.5907 97.3035 32.284C96.6449 32.96 95.8389 33.4973 94.8855 33.896C93.9322 34.2947 92.8402 34.494 91.6095 34.494ZM91.6095 31.4C92.4935 31.4 93.2389 31.2093 93.8455 30.828C94.4522 30.4293 94.9115 29.9007 95.2235 29.242C95.5355 28.566 95.6915 27.8033 95.6915 26.954C95.6915 26.0873 95.5269 25.3247 95.1975 24.666C94.8855 23.99 94.4175 23.4613 93.7935 23.08C93.1869 22.6813 92.4589 22.482 91.6095 22.482C90.7602 22.482 90.0235 22.6813 89.3995 23.08C88.7929 23.4613 88.3249 23.99 87.9955 24.666C87.6662 25.3247 87.5015 26.0873 87.5015 26.954C87.5015 27.8033 87.6575 28.566 87.9695 29.242C88.2989 29.9007 88.7669 30.4293 89.3735 30.828C89.9802 31.2093 90.7255 31.4 91.6095 31.4ZM110.764 34.468C109.603 34.468 108.58 34.2253 107.696 33.74C106.812 33.2373 106.119 32.5093 105.616 31.556C105.113 30.6027 104.836 29.45 104.784 28.098H105.33V34H102.47V15.02H106.084V24.51L105.122 25.992C105.191 24.536 105.477 23.3227 105.98 22.352C106.5 21.3813 107.193 20.6533 108.06 20.168C108.927 19.6827 109.906 19.44 110.998 19.44C111.969 19.44 112.853 19.622 113.65 19.986C114.447 20.35 115.132 20.8613 115.704 21.52C116.276 22.1613 116.709 22.9153 117.004 23.782C117.316 24.6487 117.472 25.5933 117.472 26.616V27.162C117.472 28.1847 117.316 29.138 117.004 30.022C116.692 30.906 116.241 31.686 115.652 32.362C115.063 33.0207 114.352 33.5407 113.52 33.922C112.705 34.286 111.787 34.468 110.764 34.468ZM109.958 31.426C110.738 31.426 111.414 31.2353 111.986 30.854C112.575 30.4553 113.035 29.918 113.364 29.242C113.693 28.566 113.858 27.786 113.858 26.902C113.858 26.0007 113.693 25.2207 113.364 24.562C113.035 23.9033 112.575 23.392 111.986 23.028C111.414 22.664 110.738 22.482 109.958 22.482C109.247 22.482 108.589 22.638 107.982 22.95C107.393 23.262 106.907 23.7213 106.526 24.328C106.162 24.9347 105.98 25.6627 105.98 26.512V27.552C105.98 28.3667 106.171 29.06 106.552 29.632C106.933 30.204 107.427 30.646 108.034 30.958C108.641 31.27 109.282 31.426 109.958 31.426ZM127.436 34.494C126.188 34.494 125.087 34.2947 124.134 33.896C123.18 33.4973 122.374 32.96 121.716 32.284C121.057 31.5907 120.554 30.8107 120.208 29.944C119.878 29.0773 119.714 28.176 119.714 27.24V26.694C119.714 25.7233 119.887 24.8047 120.234 23.938C120.598 23.054 121.109 22.274 121.768 21.598C122.444 20.9047 123.258 20.3673 124.212 19.986C125.165 19.5873 126.24 19.388 127.436 19.388C128.632 19.388 129.706 19.5873 130.66 19.986C131.613 20.3673 132.419 20.9047 133.078 21.598C133.754 22.274 134.265 23.054 134.612 23.938C134.958 24.8047 135.132 25.7233 135.132 26.694V27.24C135.132 28.176 134.958 29.0773 134.612 29.944C134.282 30.8107 133.788 31.5907 133.13 32.284C132.471 32.96 131.665 33.4973 130.712 33.896C129.758 34.2947 128.666 34.494 127.436 34.494ZM127.436 31.4C128.32 31.4 129.065 31.2093 129.672 30.828C130.278 30.4293 130.738 29.9007 131.05 29.242C131.362 28.566 131.518 27.8033 131.518 26.954C131.518 26.0873 131.353 25.3247 131.024 24.666C130.712 23.99 130.244 23.4613 129.62 23.08C129.013 22.6813 128.285 22.482 127.436 22.482C126.586 22.482 125.85 22.6813 125.226 23.08C124.619 23.4613 124.151 23.99 123.822 24.666C123.492 25.3247 123.328 26.0873 123.328 26.954C123.328 27.8033 123.484 28.566 123.796 29.242C124.125 29.9007 124.593 30.4293 125.2 30.828C125.806 31.2093 126.552 31.4 127.436 31.4ZM136.354 34L140.956 26.46L140.878 27.058L136.536 19.882H140.462L143.296 24.848H143.686L146.364 19.882H150.056L145.948 27.032L146.026 26.512L150.888 34H146.962L143.608 28.67H143.218L140.046 34H136.354Z" fill="#102B32"/>
<circle cx="25" cy="25" r="25" fill="#DFF39E"/>
<path fill-rule="evenodd" clip-rule="evenodd" d="M27.6444 14.9162L21.3035 18.6035L17.6078 20.735V26.5252V29.2642V35.7362L18.4996 36.2505L20.6301 37.4802V34.0888V31.0081V22.4798L22.8147 21.219L24.9992 19.9591L30.652 16.6528L33.5827 14.9522L24.9992 10L18.4988 13.7503L12 17.5006V32.501L14.9389 34.1967V19.1963L19.9682 16.2938L24.9992 13.3914L27.6452 14.917L27.6444 14.9162ZM35.0603 21.0367V30.8037L30.0293 33.7062L26.4163 35.791V32.7218V26.0232L29.3682 24.3202L31.4219 23.1355L32.3906 22.5762L35.0603 21.0367ZM31.0144 19.9411L27.9921 21.6851L23.4446 24.3087V27.7394V29.144V39.1031L25 40L26.4171 39.1824L31.5004 36.2505L38 32.5002V24.9996V17.499L36.6246 16.7059L34.6766 17.8301L33.6849 18.4016L31.0152 19.942L31.0144 19.9411Z" fill="#102B32"/>
</svg>
